#!OML:ASF I:\salsa\salsa 7_09\Patient 1\Session 1\dancermale.ASF
:FULLY-SPECIFIED
:DEGREES
1479
root -4.97495 17.4408 -0.907024 62.8734 87.3257 774.236
lowerback -6.02589 1.05543 1.0168
upperback -2.16218 1.42638 -1.82513
thorax 1.22209 0.728175 -2.34767
lowerneck -5.26786 -3.58848 -1.40712
upperneck 10.4301 -4.57893 -0.406616
head 4.40502 -2.30172 -0.13603
rclavicle 7.26496e-015 -1.08338e-014
rhumerus -49.3405 -2.86721 -87.2154
rradius 60.1747
rwrist 6.63981
rhand -37.9398 9.3824
rfingers 7.12502
rthumb -10.9812 -20.3104
lclavicle 7.26496e-015 -1.08338e-014
lhumerus -50.609 -0.511533 91.0083
lradius 63.9891
lwrist 39.8265
lhand -18.7041 51.9477
lfingers 7.12502
lthumb 7.59078 -998.209
rfemur -9.11632 1.83451 20.6834
rtibia 34.0206
rfoot -15.4788 -7.42901
rtoes -0.26268
lfemur -22.5198 2.73356 -22.6254
ltibia 19.2865
lfoot -9.33029 2.6766
ltoes 4.14527
1480
root -5.17319 17.4485 -0.851564 57.5546 87.5338 768.529
lowerback -5.95613 1.20971 1.29425
upperback -2.2683 1.61517 -1.75509
thorax 1.08859 0.820372 -2.42074
lowerneck -5.31847 -3.73421 -1.33411
upperneck 10.2836 -4.77874 -0.463081
head 4.3593 -2.40134 -0.177791
rclavicle -1.41355e-014 -3.97569e-015
rhumerus -47.647 -4.21772 -86.8111
rradius 59.254
rwrist 6.67317
rhand -38.0208 9.26052
rfingers 7.12502
rthumb -11.0593 -20.4281
lclavicle -1.41355e-014 -3.97569e-015
lhumerus -50.3565 -0.619061 90.7456
lradius 63.7427
lwrist 39.5983
lhand -18.8496 52.2462
lfingers 7.12502
lthumb 7.45032 -997.905
rfemur -8.76614 2.11982 21.4743
rtibia 31.3477
rfoot -16.9921 -8.43114
rtoes 0.372949
lfemur -23.9595 2.074 -21.8059
ltibia 20.0527
lfoot -9.91671 3.18231
ltoes 2.51184
1481
root -5.37072 17.4485 -0.801221 54.7797 87.734 765.496
lowerback -5.71843 1.3534 1.59822
upperback -2.37077 1.7913 -1.73132
thorax 0.868191 0.904509 -2.56184
lowerneck -5.21271 -3.90483 -1.34773
upperneck 9.99352 -5.02042 -0.394861
head 4.23697 -2.5195 -0.158969
rclavicle 7.43889e-015 -1.12313e-014
rhumerus -46.189 -5.73245 -86.46
rradius 58.4905
rwrist 6.62662
rhand -38.2606 8.98818
rfingers 7.12502
rthumb -11.2906 -20.6879
lclavicle 7.43889e-015 -1.12313e-014
lhumerus -50.1927 -0.695857 90.5419
lradius 63.8676
lwrist 39.6085
lhand -19.0867 52.3281
lfingers 7.12502
lthumb 7.22144 -997.815
rfemur -8.30942 1.85982 22.011
rtibia 28.6752
rfoot -18.1212 -9.03675
rtoes 0.525604
lfemur -25.4123 1.676 -21.0939
ltibia 21.277
lfoot -11.2447 2.98222
ltoes 0.170774
1482
root -5.56873 17.4421 -0.759751 51.9573 87.8935 762.332
lowerback -5.55746 1.5283 1.97481
upperback -2.51183 2.00889 -1.76205
thorax 0.659036 1.00845 -2.79743
lowerneck -5.09813 -4.07048 -1.34327
upperneck 9.82615 -5.26819 -0.192831
head 4.16168 -2.63298 -0.10057
rclavicle 1.65985e-014 -1.31198e-014
rhumerus -44.9153 -7.13784 -86.2449
rradius 57.8889
rwrist 6.20553
rhand -38.2361 8.73247
rfingers 7.12502
rthumb -11.267 -20.9449
lclavicle 1.65985e-014 -1.31198e-014
lhumerus -50.1538 -0.874224 90.3713
lradius 64.3944
lwrist 39.7077
lhand -18.9841 51.9915
lfingers 7.12502
lthumb 7.32051 -998.155
rfemur -8.0069 1.45389 22.3816
rtibia 26.105
rfoot -18.7562 -9.37498
rtoes 0.539848
lfemur -27.0041 1.38253 -20.4355
ltibia 22.7424
lfoot -12.6359 2.56247
ltoes -2.24842
1483
root -5.76265 17.4344 -0.719615 47.1878 87.9265 757.417
lowerback -5.35796 1.65828 2.16366
upperback -2.50522 2.1733 -1.71093
thorax 0.56998 1.08785 -2.84599
lowerneck -5.07556 -4.20907 -1.24609
upperneck 9.51187 -5.46747 -0.202353
head 4.0422 -2.73065 -0.125491
rclavicle 1.49865e-014 -1.07344e-014
rhumerus -43.5629 -8.19587 -86.1417
rradius 57.3267
rwrist 5.51649
rhand -37.9784 8.32142
rfingers 7.12502
rthumb -11.0185 -21.3694
lclavicle 1.49865e-014 -1.07344e-014
lhumerus -49.9437 -0.769851 90.2048
lradius 65.0544
lwrist 39.8197
lhand -18.8189 51.5882
lfingers 7.12502
lthumb 7.47994 -998.564
rfemur -7.57078 1.17318 22.6761
rtibia 23.7108
rfoot -18.9393 -9.62024
rtoes -0.0890891
lfemur -28.2199 1.31267 -19.9083
ltibia 24.8554
lfoot -14.0235 2.42722
ltoes -5.20566
1484
root -5.94925 17.4259 -0.678697 36.9908 87.877 747.328
lowerback -5.12319 1.77886 2.29677
upperback -2.30015 2.32179 -1.49752
thorax 0.656549 1.1623 -2.69487
lowerneck -5.33467 -4.31496 -1.18647
upperneck 9.36273 -5.60616 -0.306017
head 4.0355 -2.8035 -0.181686
rclavicle -5.15287e-015 -7.40473e-015
rhumerus -42.0552 -8.89539 -86.0826
rradius 56.7679
rwrist 4.7237
rhand -37.8846 7.51472
rfingers 7.12502
rthumb -10.9279 -22.1809
lclavicle -5.15287e-015 -7.40473e-015
lhumerus -49.408 -0.41497 90.1531
lradius 65.6889
lwrist 39.9574
lhand -18.4457 51.3736
lfingers 7.12502
lthumb 7.84013 -998.792
rfemur -7.0993 0.962583 23.0925
rtibia 21.7877
rfoot -18.9502 -9.62985
rtoes -1.26691
lfemur -28.9494 1.47972 -19.3191
ltibia 27.6584
lfoot -15.2283 2.87557
ltoes -7.08047
